<?xml version="1.0" encoding="UTF-8"?>
<svg xmlns="http://www.w3.org/2000/svg" xmlns:xlink="http://www.w3.org/1999/xlink" width="347.696pt" height="23.827pt" viewBox="0 0 347.696 23.827">
<path fill-rule="nonzero" fill="rgb(25%, 25%, 25%)" fill-opacity="1" d="M 1.992188 17.582031 L 1.992188 6.242188 C 1.992188 3.894531 3.898438 1.992188 6.246094 1.992188 L 341.457031 1.992188 C 343.804688 1.992188 345.707031 3.894531 345.707031 6.242188 L 345.707031 17.582031 C 345.707031 19.929688 343.804688 21.835938 341.457031 21.835938 L 6.246094 21.835938 C 3.898438 21.835938 1.992188 19.929688 1.992188 17.582031 Z M 1.992188 17.582031 "/>
<path fill-rule="nonzero" fill="rgb(89.99939%, 89.99939%, 100%)" fill-opacity="1" d="M 3.410156 17.582031 L 3.410156 6.242188 C 3.410156 4.679688 4.679688 3.410156 6.246094 3.410156 L 341.457031 3.410156 C 343.023438 3.410156 344.292969 4.679688 344.292969 6.242188 L 344.292969 17.582031 C 344.292969 19.148438 343.023438 20.417969 341.457031 20.417969 L 6.246094 20.417969 C 4.679688 20.417969 3.410156 19.148438 3.410156 17.582031 Z M 3.410156 17.582031 "/>
</svg>
